HIERARCHY
ROOT Hips
{
	OFFSET 0.053599 88.859886 3.107447
	CHANNELS 6 Xposition Yposition Zposition Zrotation Yrotation Xrotation 
	JOINT Spine
	{
		OFFSET -0.000000 8.814246 -2.080107
		CHANNELS 3 Zrotation Yrotation Xrotation
		JOINT Spine1
		{
			OFFSET 0.000000 8.844141 0.000000
			CHANNELS 3 Zrotation Yrotation Xrotation
			JOINT Spine2
			{
				OFFSET -0.000000 11.682268 0.000000
				CHANNELS 3 Zrotation Yrotation Xrotation
				JOINT Spine3
				{
					OFFSET 0.000000 11.746700 0.000000
					CHANNELS 3 Zrotation Yrotation Xrotation
					JOINT Neck
					{
						OFFSET -0.000000 17.658264 -0.000000
						CHANNELS 3 Zrotation Yrotation Xrotation
						JOINT Neck1
						{
							OFFSET -0.000000 5.101515 -0.000000
							CHANNELS 3 Zrotation Yrotation Xrotation
							JOINT Head
							{
								OFFSET 0.000000 5.101515 0.000000
								CHANNELS 3 Zrotation Yrotation Xrotation
								JOINT HeadEnd
								{
									OFFSET 0.000000 11.655085 0.000000
									CHANNELS 3 Zrotation Yrotation Xrotation
									End Site
									{
										OFFSET 0.000000 0.000000 0.000000
									}
								}
							}
						}
					}
					JOINT RightShoulder
					{
						OFFSET -2.625389 11.175210 0.000000
						CHANNELS 3 Zrotation Yrotation Xrotation
						JOINT RightArm
						{
							OFFSET -0.000000 10.434715 -0.000000
							CHANNELS 3 Zrotation Yrotation Xrotation
							JOINT RightForeArm
							{
								OFFSET -0.000000 29.628420 0.000000
								CHANNELS 3 Zrotation Yrotation Xrotation
								JOINT RightHand
								{
									OFFSET -0.000000 22.857611 0.000000
									CHANNELS 3 Zrotation Yrotation Xrotation
									JOINT RightHandThumb1
									{
										OFFSET -2.867323 3.959563 2.944291
										CHANNELS 3 Zrotation Yrotation Xrotation
										JOINT RightHandThumb2
										{
											OFFSET 0.000000 3.350399 0.000000
											CHANNELS 3 Zrotation Yrotation Xrotation
											JOINT RightHandThumb3
											{
												OFFSET 0.000000 3.756509 -0.000000
												CHANNELS 3 Zrotation Yrotation Xrotation
												JOINT RightHandThumb4
												{
													OFFSET 0.000000 3.147345 0.000000
													CHANNELS 3 Zrotation Yrotation Xrotation
													End Site
													{
														OFFSET 0.000000 0.000000 0.000000
													}
												}
											}
										}
									}
									JOINT RightHandIndex1
									{
										OFFSET -0.086752 10.030893 2.345280
										CHANNELS 3 Zrotation Yrotation Xrotation
										JOINT RightHandIndex2
										{
											OFFSET -0.000000 4.061090 0.000000
											CHANNELS 3 Zrotation Yrotation Xrotation
											JOINT RightHandIndex3
											{
												OFFSET -0.000000 3.248873 0.000000
												CHANNELS 3 Zrotation Yrotation Xrotation
												JOINT RightHandIndex4
												{
													OFFSET 0.000000 2.639709 -0.000000
													CHANNELS 3 Zrotation Yrotation Xrotation
													End Site
													{
														OFFSET 0.000000 0.000000 0.000000
													}
												}
											}
										}
									}
									JOINT RightHandMiddle1
									{
										OFFSET 0.104102 9.502952 0.006768
										CHANNELS 3 Zrotation Yrotation Xrotation
										JOINT RightHandMiddle2
										{
											OFFSET 0.000000 4.568727 0.000000
											CHANNELS 3 Zrotation Yrotation Xrotation
											JOINT RightHandMiddle3
											{
												OFFSET 0.000000 3.654981 -0.000000
												CHANNELS 3 Zrotation Yrotation Xrotation
												JOINT RightHandMiddle4
												{
													OFFSET -0.000000 2.741236 -0.000000
													CHANNELS 3 Zrotation Yrotation Xrotation
													End Site
													{
														OFFSET 0.000000 0.000000 0.000000
													}
												}
											}
										}
									}
									JOINT RightHandRing1
									{
										OFFSET 0.086752 8.921708 -2.267442
										CHANNELS 3 Zrotation Yrotation Xrotation
										JOINT RightHandRing2
										{
											OFFSET -0.000000 4.061090 0.000000
											CHANNELS 3 Zrotation Yrotation Xrotation
											JOINT RightHandRing3
											{
												OFFSET 0.000000 3.654981 -0.000000
												CHANNELS 3 Zrotation Yrotation Xrotation
												JOINT RightHandRing4
												{
													OFFSET 0.000000 2.741236 -0.000000
													CHANNELS 3 Zrotation Yrotation Xrotation
													End Site
													{
														OFFSET 0.000000 0.000000 0.000000
													}
												}
											}
										}
									}
									JOINT RightHandPinky1
									{
										OFFSET -0.173504 7.976997 -4.467199
										CHANNELS 3 Zrotation Yrotation Xrotation
										JOINT RightHandPinky2
										{
											OFFSET 0.000000 3.350399 -0.000000
											CHANNELS 3 Zrotation Yrotation Xrotation
											JOINT RightHandPinky3
											{
												OFFSET -0.000000 2.842763 0.000000
												CHANNELS 3 Zrotation Yrotation Xrotation
												JOINT RightHandPinky4
												{
													OFFSET -0.000000 2.639709 0.000000
													CHANNELS 3 Zrotation Yrotation Xrotation
													End Site
													{
														OFFSET 0.000000 0.000000 0.000000
													}
												}
											}
										}
									}
									JOINT RightForeArmEnd
									{
										OFFSET 0.000000 0.000000 0.000000
										CHANNELS 3 Zrotation Yrotation Xrotation
										End Site
										{
											OFFSET 0.000000 0.000000 0.000000
										}
									}
								}
								JOINT RightArmEnd
								{
									OFFSET 0.000000 0.000000 0.000000
									CHANNELS 3 Zrotation Yrotation Xrotation
									End Site
									{
										OFFSET 0.000000 0.000000 0.000000
									}
								}
							}
						}
					}
					JOINT LeftShoulder
					{
						OFFSET 2.625389 11.175210 0.000000
						CHANNELS 3 Zrotation Yrotation Xrotation
						JOINT LeftArm
						{
							OFFSET 0.000000 10.813635 -0.000000
							CHANNELS 3 Zrotation Yrotation Xrotation
							JOINT LeftForeArm
							{
								OFFSET 0.000000 28.724781 0.000000
								CHANNELS 3 Zrotation Yrotation Xrotation
								JOINT LeftHand
								{
									OFFSET 0.644384 25.716167 -0.328871
									CHANNELS 3 Zrotation Yrotation Xrotation
									JOINT LeftHandThumb1
									{
										OFFSET 2.867323 3.959563 2.944291
										CHANNELS 3 Zrotation Yrotation Xrotation
										JOINT LeftHandThumb2
										{
											OFFSET 0.000000 3.350399 0.000000
											CHANNELS 3 Zrotation Yrotation Xrotation
											JOINT LeftHandThumb3
											{
												OFFSET -0.000000 3.756509 0.000000
												CHANNELS 3 Zrotation Yrotation Xrotation
												JOINT LeftHandThumb4
												{
													OFFSET -0.000000 3.100000 0.000000
													CHANNELS 3 Zrotation Yrotation Xrotation
													End Site
													{
														OFFSET 0.000000 0.000000 0.000000
													}
												}
											}
										}
									}
									JOINT LeftHandIndex1
									{
										OFFSET 0.086752 10.030893 2.345280
										CHANNELS 3 Zrotation Yrotation Xrotation
										JOINT LeftHandIndex2
										{
											OFFSET -0.000000 4.061090 -0.000000
											CHANNELS 3 Zrotation Yrotation Xrotation
											JOINT LeftHandIndex3
											{
												OFFSET 0.000000 3.248873 -0.000000
												CHANNELS 3 Zrotation Yrotation Xrotation
												JOINT LeftHandIndex4
												{
													OFFSET 0.000000 2.639709 -0.000000
													CHANNELS 3 Zrotation Yrotation Xrotation
													End Site
													{
														OFFSET 0.000000 0.000000 0.000000
													}
												}
											}
										}
									}
									JOINT LeftHandMiddle1
									{
										OFFSET -0.104102 9.502952 0.006768
										CHANNELS 3 Zrotation Yrotation Xrotation
										JOINT LeftHandMiddle2
										{
											OFFSET -0.000000 4.568727 -0.000000
											CHANNELS 3 Zrotation Yrotation Xrotation
											JOINT LeftHandMiddle3
											{
												OFFSET 0.000000 3.654981 0.000000
												CHANNELS 3 Zrotation Yrotation Xrotation
												JOINT LeftHandMiddle4
												{
													OFFSET 0.000000 2.741236 -0.000000
													CHANNELS 3 Zrotation Yrotation Xrotation
													End Site
													{
														OFFSET 0.000000 0.000000 0.000000
													}
												}
											}
										}
									}
									JOINT LeftHandRing1
									{
										OFFSET -0.086752 8.921708 -2.267442
										CHANNELS 3 Zrotation Yrotation Xrotation
										JOINT LeftHandRing2
										{
											OFFSET 0.000000 4.061090 0.000000
											CHANNELS 3 Zrotation Yrotation Xrotation
											JOINT LeftHandRing3
											{
												OFFSET 0.000000 3.654981 0.000000
												CHANNELS 3 Zrotation Yrotation Xrotation
												JOINT LeftHandRing4
												{
													OFFSET 0.000000 2.741236 0.000000
													CHANNELS 3 Zrotation Yrotation Xrotation
													End Site
													{
														OFFSET 0.000000 0.000000 0.000000
													}
												}
											}
										}
									}
									JOINT LeftHandPinky1
									{
										OFFSET 0.173504 7.976997 -4.467199
										CHANNELS 3 Zrotation Yrotation Xrotation
										JOINT LeftHandPinky2
										{
											OFFSET -0.000000 3.350399 -0.000000
											CHANNELS 3 Zrotation Yrotation Xrotation
											JOINT LeftHandPinky3
											{
												OFFSET 0.000000 2.842763 0.000000
												CHANNELS 3 Zrotation Yrotation Xrotation
												JOINT LeftHandPinky4
												{
													OFFSET -0.000000 2.639709 -0.000000
													CHANNELS 3 Zrotation Yrotation Xrotation
													End Site
													{
														OFFSET 0.000000 0.000000 0.000000
													}
												}
											}
										}
									}
									JOINT LeftForeArmEnd
									{
										OFFSET 0.000000 0.000000 0.000000
										CHANNELS 3 Zrotation Yrotation Xrotation
										End Site
										{
											OFFSET 0.000000 0.000000 0.000000
										}
									}
								}
								JOINT LeftArmEnd
								{
									OFFSET 0.000000 0.000000 0.000000
									CHANNELS 3 Zrotation Yrotation Xrotation
									End Site
									{
										OFFSET 0.000000 0.000000 0.000000
									}
								}
							}
						}
					}
				}
			}
		}
	}
	JOINT RightUpLeg
	{
		OFFSET -11.289943 0.000000 0.000000
		CHANNELS 3 Zrotation Yrotation Xrotation
		JOINT RightLeg
		{
			OFFSET 0.000000 -38.200325 0.000000
			CHANNELS 3 Zrotation Yrotation Xrotation
			JOINT RightFoot
			{
				OFFSET -0.000000 -39.900856 -0.000000
				CHANNELS 3 Zrotation Yrotation Xrotation
				JOINT RightToeBase
				{
					OFFSET 0.000000 0.000000 15.261641
					CHANNELS 3 Zrotation Yrotation Xrotation
					JOINT RightToeBaseEnd
					{
						OFFSET 0.000000 0.000000 7.370709
						CHANNELS 3 Zrotation Yrotation Xrotation
						End Site
						{
							OFFSET 0.000000 0.000000 0.000000
						}
					}
				}
				JOINT RightLegEnd
				{
					OFFSET 0.000000 0.000000 0.000000
					CHANNELS 3 Zrotation Yrotation Xrotation
					End Site
					{
						OFFSET 0.000000 0.000000 0.000000
					}
				}
			}
			JOINT RightUpLegEnd
			{
				OFFSET 0.000000 0.000000 0.000000
				CHANNELS 3 Zrotation Yrotation Xrotation
				End Site
				{
					OFFSET 0.000000 0.000000 0.000000
				}
			}
		}
	}
	JOINT LeftUpLeg
	{
		OFFSET 11.315661 -0.000000 0.000000
		CHANNELS 3 Zrotation Yrotation Xrotation
		JOINT LeftLeg
		{
			OFFSET -0.000000 -38.200325 -0.000000
			CHANNELS 3 Zrotation Yrotation Xrotation
			JOINT LeftFoot
			{
				OFFSET 0.000000 -39.900856 -0.000000
				CHANNELS 3 Zrotation Yrotation Xrotation
				JOINT LeftToeBase
				{
					OFFSET -0.000000 -0.000000 15.261641
					CHANNELS 3 Zrotation Yrotation Xrotation
					JOINT LeftToeBaseEnd
					{
						OFFSET 0.000000 -0.000000 7.539996
						CHANNELS 3 Zrotation Yrotation Xrotation
						End Site
						{
							OFFSET 0.000000 0.000000 0.000000
						}
					}
				}
				JOINT LeftLegEnd
				{
					OFFSET 0.000000 0.000000 0.000000
					CHANNELS 3 Zrotation Yrotation Xrotation
					End Site
					{
						OFFSET 0.000000 0.000000 0.000000
					}
				}
			}
			JOINT LeftUpLegEnd
			{
				OFFSET 0.000000 0.000000 0.000000
				CHANNELS 3 Zrotation Yrotation Xrotation
				End Site
				{
					OFFSET 0.000000 0.000000 0.000000
				}
			}
		}
	}
}
MOTION
Frames: 4
Frame Time: 0.016667
0.489038 88.811020 3.161303 -0.332881 -1.519600 -10.610831 1.238062 0.128131 6.750200 -0.980803 0.245371 2.789584 0.256816 -0.389498 4.316327 -1.336455 0.360873 4.577851 1.107625 0.682127 4.804774 0.327596 0.675545 -3.306429 -0.494823 -1.025256 -20.044043 0.000000 0.000000 0.000000 91.688751 -0.020517 9.529707 68.703125 -21.575432 -0.712735 -0.312985 20.618288 51.406834 2.179242 7.889604 -5.604367 19.646048 30.175310 62.233921 -8.255140 -11.810030 -20.006748 -6.156541 -7.725555 -13.783263 0.000000 0.000000 0.000000 10.801457 -10.777523 4.280296 9.515362 0.266256 1.644236 9.228338 -0.162164 1.618798 0.000000 0.000000 0.000000 10.339886 -5.301012 1.823989 8.429297 0.413452 0.616906 9.025970 -0.077241 0.537526 0.000000 0.000000 0.000000 11.642549 2.526152 -0.473512 9.611498 -0.861224 -0.932659 9.649055 0.089629 -0.677585 0.000000 0.000000 0.000000 10.871206 11.213356 -3.553820 9.585702 -1.571936 -2.649145 9.550591 0.338940 -2.140208 0.000000 0.000000 0.000000 0.000000 0.000000 0.000000 0.000000 0.000000 0.000000 -88.612320 0.096409 4.245293 -73.326691 9.573747 -8.652040 -0.618198 -16.464397 67.949097 0.375930 -7.712565 -9.475682 -20.260441 -30.007656 61.558933 8.925924 13.049048 -21.784138 6.672880 8.747296 -15.305720 0.000000 0.000000 0.000000 -20.322250 -5.112757 4.419901 -13.180742 0.350111 -1.097324 -13.058531 -0.126936 -1.076759 0.000000 0.000000 0.000000 -20.247160 0.032624 1.942991 -13.331261 0.416468 -0.525696 -13.521895 -0.066460 -0.423232 0.000000 0.000000 0.000000 -24.384907 8.368195 -0.823426 -16.346441 -0.873760 0.891169 -16.445282 0.088669 0.700995 0.000000 0.000000 0.000000 -26.941334 17.090229 -4.347117 -17.960358 -1.549786 2.978056 -17.587683 0.434413 2.543456 0.000000 0.000000 0.000000 0.000000 0.000000 0.000000 0.000000 0.000000 0.000000 -0.825595 -9.197948 14.829912 -0.065012 -0.636373 4.966617 -2.632404 -7.282157 18.179409 -0.798759 0.774450 -18.840586 0.000000 0.000000 0.000000 0.000000 0.000000 0.000000 0.000000 0.000000 0.000000 -1.376390 -6.439957 9.119638 0.084460 0.336329 10.830182 4.141200 -1.033543 16.618284 0.249275 -0.371080 -21.195887 0.000000 0.000000 0.000000 0.000000 0.000000 0.000000 0.000000 0.000000 0.000000 
0.481877 88.804375 3.160766 -0.327315 -1.511441 -10.646623 1.249810 0.134130 6.770098 -0.979824 0.254982 2.801789 0.235076 -0.342959 4.346990 -1.358370 0.378654 4.610024 1.146514 0.636656 4.882174 0.339676 0.635972 -3.259591 -0.481136 -1.032061 -20.075300 0.000000 0.000000 0.000000 91.671158 -0.004680 9.539278 68.679771 -21.536869 -0.765925 -0.306088 20.614735 51.330612 2.178765 7.792284 -5.696962 19.613707 30.184879 62.269218 -8.221224 -11.741656 -19.904024 -6.129236 -7.679234 -13.710041 0.000000 0.000000 0.000000 10.609745 -10.744219 4.375409 9.398869 0.278155 1.608900 9.112754 -0.150588 1.588273 0.000000 0.000000 0.000000 10.165421 -5.270891 1.866488 8.320114 0.418331 0.601989 8.909976 -0.072886 0.525564 0.000000 0.000000 0.000000 11.515136 2.550364 -0.476726 9.529281 -0.868037 -0.914435 9.562572 0.084689 -0.663332 0.000000 0.000000 0.000000 10.787095 11.232252 -3.605006 9.547699 -1.589691 -2.598583 9.509939 0.323972 -2.096735 0.000000 0.000000 0.000000 0.000000 0.000000 0.000000 0.000000 0.000000 0.000000 -88.660889 0.102533 4.204510 -73.160118 9.514173 -8.603884 -0.594350 -16.452251 68.179611 0.363834 -7.278805 -9.419279 -20.179121 -30.027611 61.631546 8.858932 12.893187 -21.553844 6.613444 8.643945 -15.145315 0.000000 0.000000 0.000000 -19.831480 -5.197633 4.672967 -12.869812 0.365270 -1.051094 -12.752008 -0.112642 -1.034629 0.000000 0.000000 0.000000 -19.797281 -0.040779 2.094631 -13.027992 0.422908 -0.507690 -13.224828 -0.060789 -0.407956 0.000000 0.000000 0.000000 -24.020641 8.311457 -0.806569 -16.093328 -0.882832 0.868196 -16.189503 0.081766 0.684293 0.000000 0.000000 0.000000 -26.680157 17.056078 -4.470295 -17.775940 -1.572510 2.922118 -17.397352 0.414635 2.495923 0.000000 0.000000 0.000000 0.000000 0.000000 0.000000 0.000000 0.000000 0.000000 -0.820372 -9.222892 14.871686 -0.065263 -0.636943 4.974622 -2.656258 -7.272918 18.144798 -0.795541 0.775638 -18.837610 0.000000 0.000000 0.000000 0.000000 0.000000 0.000000 0.000000 0.000000 0.000000 -1.356184 -6.462173 9.143007 0.084263 0.337028 10.865784 4.129261 -1.061267 16.587538 0.248141 -0.369870 -21.186571 0.000000 0.000000 0.000000 0.000000 0.000000 0.000000 0.000000 0.000000 0.000000 
0.473585 88.797119 3.158996 -0.321020 -1.502531 -10.680827 1.259389 0.139947 6.790402 -0.977928 0.264463 2.815741 0.211084 -0.298381 4.377811 -1.378701 0.394774 4.640532 1.193449 0.587695 4.959044 0.353476 0.598173 -3.213834 -0.467011 -1.038751 -20.107130 0.000000 0.000000 0.000000 91.659042 0.009325 9.548887 68.651581 -21.528399 -0.810046 -0.298394 20.604094 51.206352 2.186468 7.698182 -5.796624 19.581856 30.194565 62.304195 -8.187482 -11.674184 -19.802717 -6.102202 -7.633833 -13.637971 0.000000 0.000000 0.000000 10.419444 -10.711937 4.457213 9.283319 0.290642 1.572454 8.997772 -0.138431 1.556642 0.000000 0.000000 0.000000 9.991437 -5.240921 1.899967 8.210863 0.423427 0.586701 8.793514 -0.068364 0.513316 0.000000 0.000000 0.000000 11.386925 2.575136 -0.483232 9.444281 -0.875145 -0.895849 9.471877 0.079549 -0.648818 0.000000 0.000000 0.000000 10.703917 11.250664 -3.653647 9.505415 -1.608363 -2.546869 9.464754 0.308214 -2.052545 0.000000 0.000000 0.000000 0.000000 0.000000 0.000000 0.000000 0.000000 0.000000 -88.714409 0.109157 4.168854 -72.995132 9.498604 -8.550987 -0.569066 -16.426151 68.372803 0.366093 -6.833720 -9.384291 -20.081955 -30.052090 61.719391 8.776540 12.706038 -21.276428 6.541116 8.519951 -14.952292 0.000000 0.000000 0.000000 -19.225365 -5.303762 4.956935 -12.486214 0.380881 -1.005036 -12.373422 -0.097894 -0.992790 0.000000 0.000000 0.000000 -19.235315 -0.134134 2.264124 -12.652095 0.429611 -0.489639 -12.854751 -0.054950 -0.392710 0.000000 0.000000 0.000000 -23.539999 8.237392 -0.787607 -15.762209 -0.892346 0.845007 -15.855237 0.074639 0.667445 0.000000 0.000000 0.000000 -26.309050 17.010630 -4.606417 -17.517696 -1.596589 2.865347 -17.133602 0.393920 2.448039 0.000000 0.000000 0.000000 0.000000 0.000000 0.000000 0.000000 0.000000 0.000000 -0.815339 -9.248451 14.913460 -0.065588 -0.637726 4.982865 -2.680143 -7.263109 18.105892 -0.791852 0.776952 -18.834009 0.000000 0.000000 0.000000 0.000000 0.000000 0.000000 0.000000 0.000000 0.000000 -1.337393 -6.483119 9.162524 0.084038 0.337644 10.902026 4.117732 -1.085815 16.557831 0.247186 -0.368709 -21.178387 0.000000 0.000000 0.000000 0.000000 0.000000 0.000000 0.000000 0.000000 0.000000 
0.464261 88.789345 3.156091 -0.313587 -1.492279 -10.713577 1.266412 0.145655 6.811672 -0.975400 0.273842 2.830958 0.185139 -0.256026 4.409270 -1.397368 0.409080 4.669181 1.247493 0.535265 5.034151 0.368486 0.561773 -3.169531 -0.452343 -1.045197 -20.139496 0.000000 0.000000 0.000000 91.653091 0.021156 9.558345 68.618958 -21.547815 -0.845289 -0.289905 20.585558 51.032532 2.203231 7.611443 -5.902678 19.550594 30.204235 62.338486 -8.154278 -11.607958 -19.703533 -6.075682 -7.589544 -13.567502 0.000000 0.000000 0.000000 10.231547 -10.680553 4.525303 9.168453 0.303403 1.535509 8.883324 -0.125982 1.524461 0.000000 0.000000 0.000000 9.819093 -5.211227 1.924141 8.101361 0.428584 0.571288 8.676591 -0.063796 0.500983 0.000000 0.000000 0.000000 11.260303 2.599830 -0.493130 9.356982 -0.882333 -0.877178 9.377782 0.074359 -0.634267 0.000000 0.000000 0.000000 10.624733 11.267794 -3.699970 9.459945 -1.627425 -2.494758 9.416131 0.292072 -2.008286 0.000000 0.000000 0.000000 0.000000 0.000000 0.000000 0.000000 0.000000 0.000000 -88.771835 0.116039 4.138960 -72.833748 9.526275 -8.495263 -0.542265 -16.386978 68.530655 0.379739 -6.378550 -9.372602 -19.968327 -30.081438 61.823139 8.677567 12.486473 -20.949732 6.455138 8.374599 -14.725156 0.000000 0.000000 0.000000 -18.496420 -5.432869 5.275458 -12.024687 0.396603 -0.959939 -11.917406 -0.083023 -0.951984 0.000000 0.000000 0.000000 -18.554152 -0.249051 2.453826 -12.198642 0.436427 -0.471845 -12.406711 -0.049072 -0.377760 0.000000 0.000000 0.000000 -22.936422 8.144811 -0.765824 -15.348704 -0.902101 0.822008 -15.438225 0.067446 0.650747 0.000000 0.000000 0.000000 -25.821625 16.953764 -4.756291 -17.182543 -1.621440 2.808924 -16.793133 0.372789 2.400844 0.000000 0.000000 0.000000 0.000000 0.000000 0.000000 0.000000 0.000000 0.000000 -0.811357 -9.275219 14.955075 -0.065976 -0.638709 4.991350 -2.703614 -7.252861 18.062759 -0.787832 0.778463 -18.829672 0.000000 0.000000 0.000000 0.000000 0.000000 0.000000 0.000000 0.000000 0.000000 -1.320490 -6.502737 9.177868 0.083755 0.338089 10.939073 4.107168 -1.107824 16.529989 0.246240 -0.367534 -21.171665 0.000000 0.000000 0.000000 0.000000 0.000000 0.000000 0.000000 0.000000 0.000000 
